<?xml version="1.0" encoding="UTF-8"?>
<svg xmlns="http://www.w3.org/2000/svg" version="1.1" viewBox="18.6 353.6 938.7 297.2">
  <defs>
    <style>
      .cls-1 {
        fill: #3355a6;
      }

      .cls-2 {
        fill: #59bda9;
      }

      .cls-3 {
        fill: #bf1e64;
      }

      .cls-4 {
        fill: #1f1f1f;
      }

      .cls-5 {
        fill: #1274b0;
      }
    </style>
  </defs>
  <!-- Generator: Adobe Illustrator 28.6.0, SVG Export Plug-In . SVG Version: 1.2.0 Build 709)  -->
  <g>
    <g id="Layer_1">
      <g id="Layer_1_copy">
        <rect class="cls-1" x="28.61" y="452.37" width="11.02" height="84.64"/>
        <rect class="cls-1" x="39.64" y="526" width="47.55" height="11.02"/>
        <rect class="cls-1" x="39.64" y="452.37" width="121.14" height="11.02"/>
        <circle class="cls-1" cx="165.51" cy="457.88" r="11.06"/>
        <circle class="cls-1" cx="93.94" cy="531.51" r="11.06"/>
      </g>
      <g id="Layer_2_copy">
        <g>
          <rect class="cls-2" x="117.07" y="363.61" width="84.64" height="11.02"/>
          <rect class="cls-2" x="117.07" y="374.63" width="11.02" height="47.55"/>
          <rect class="cls-2" x="190.69" y="374.63" width="11.02" height="132.2"/>
          <circle class="cls-2" cx="196.2" cy="506.83" r="11.06"/>
          <circle class="cls-2" cx="122.58" cy="428.94" r="11.06"/>
        </g>
      </g>
      <g id="Layer_2_copy_2">
        <g>
          <rect class="cls-3" x="278.5" y="452.37" width="11.02" height="84.64"/>
          <rect class="cls-3" x="230.95" y="452.37" width="47.55" height="11.02"/>
          <rect class="cls-3" x="157.36" y="526" width="121.14" height="11.02"/>
          <circle class="cls-3" cx="154.45" cy="531.51" r="11.06"/>
          <circle class="cls-3" cx="227.53" cy="457.88" r="11.06"/>
        </g>
      </g>
      <g id="Layer_2_copy_3">
        <g>
          <rect class="cls-5" x="116.99" y="614.8" width="84.64" height="11.02"/>
          <rect class="cls-5" x="190.62" y="568.64" width="11.02" height="47.55"/>
          <rect class="cls-5" x="116.99" y="483.99" width="11.02" height="132.2"/>
          <circle class="cls-5" cx="122.5" cy="483.99" r="11.06"/>
          <circle class="cls-5" cx="196.12" cy="561.89" r="11.06"/>
        </g>
      </g>
      <g>
        <path class="cls-4" d="M408.21,374.51h36.14l57.6,155.23h-40.2l-9.86-27.52h-52.19l-9.67,27.52h-39.43l57.6-155.23ZM441.07,469.19l-15.08-43.82-15.27,43.82h30.35Z"/>
        <path class="cls-4" d="M557.62,375.61h37.5v57.69h48.13v-57.69h37.5v154.13h-37.5v-58.57h-48.13v58.57h-37.5v-154.13Z"/>
        <path class="cls-4" d="M747.23,375.61h37.5v116.7h65.52v37.43h-103.02v-154.13Z"/>
        <path class="cls-4" d="M909.59,375.61h37.69v154.13h-37.69v-154.13Z"/>
      </g>
      <g>
        <path class="cls-4" d="M357.88,579.7h3.51l9.49,21.73h-4.01l-2.19-5.21h-10.2l-2.22,5.21h-3.88l9.49-21.73ZM363.3,592.85l-3.73-8.63-3.7,8.63h7.43Z"/>
        <path class="cls-4" d="M389.56,601.73c-1.66,0-3.26-.28-4.78-.85-1.52-.56-2.93-1.43-4.22-2.6l2.28-2.71c1.05.9,2.11,1.6,3.17,2.08,1.07.48,2.28.72,3.64.72,1.17,0,2.1-.25,2.79-.74.69-.49,1.03-1.15,1.03-1.97v-.06c0-.39-.07-.73-.2-1.03-.13-.3-.38-.58-.74-.85-.36-.27-.86-.51-1.48-.74-.63-.23-1.45-.45-2.46-.68-1.15-.27-2.18-.57-3.07-.91-.9-.34-1.65-.75-2.26-1.23s-1.07-1.07-1.39-1.77c-.32-.7-.48-1.54-.48-2.53v-.06c0-.92.18-1.77.55-2.54s.87-1.43,1.51-1.97,1.41-.97,2.32-1.28c.9-.31,1.89-.46,2.96-.46,1.58,0,3,.23,4.27.69,1.26.46,2.45,1.14,3.56,2.02l-2.03,2.87c-.99-.72-1.96-1.27-2.93-1.65-.97-.38-1.94-.57-2.93-.57-1.11,0-1.97.25-2.59.74-.62.49-.92,1.1-.92,1.82v.06c0,.41.07.78.22,1.09.14.32.41.61.79.86.38.26.91.5,1.58.72.67.23,1.52.46,2.55.71,1.13.29,2.14.61,3.01.96.88.35,1.6.78,2.18,1.28.58.5,1.01,1.09,1.31,1.76.3.67.45,1.44.45,2.33v.06c0,1.01-.19,1.91-.57,2.71-.38.8-.9,1.48-1.57,2.03-.67.55-1.48.98-2.42,1.26-.94.29-1.98.43-3.11.43Z"/>
        <path class="cls-4" d="M416.68,601.73c-1.66,0-3.26-.28-4.78-.85-1.52-.56-2.93-1.43-4.22-2.6l2.28-2.71c1.05.9,2.11,1.6,3.17,2.08,1.07.48,2.28.72,3.64.72,1.17,0,2.1-.25,2.79-.74.69-.49,1.03-1.15,1.03-1.97v-.06c0-.39-.07-.73-.2-1.03-.13-.3-.38-.58-.74-.85-.36-.27-.86-.51-1.48-.74-.63-.23-1.45-.45-2.46-.68-1.15-.27-2.18-.57-3.07-.91-.9-.34-1.65-.75-2.26-1.23s-1.07-1.07-1.39-1.77c-.32-.7-.48-1.54-.48-2.53v-.06c0-.92.18-1.77.55-2.54s.87-1.43,1.51-1.97,1.41-.97,2.32-1.28c.9-.31,1.89-.46,2.96-.46,1.58,0,3,.23,4.27.69,1.26.46,2.45,1.14,3.56,2.02l-2.03,2.87c-.99-.72-1.96-1.27-2.93-1.65-.97-.38-1.94-.57-2.93-.57-1.11,0-1.97.25-2.59.74-.62.49-.92,1.1-.92,1.82v.06c0,.41.07.78.22,1.09.14.32.41.61.79.86.38.26.91.5,1.58.72.67.23,1.52.46,2.55.71,1.13.29,2.14.61,3.01.96.88.35,1.6.78,2.18,1.28.58.5,1.01,1.09,1.31,1.76.3.67.45,1.44.45,2.33v.06c0,1.01-.19,1.91-.57,2.71-.38.8-.9,1.48-1.57,2.03-.67.55-1.48.98-2.42,1.26-.94.29-1.98.43-3.11.43Z"/>
        <path class="cls-4" d="M446.52,601.79c-1.66,0-3.19-.29-4.56-.88-1.38-.59-2.56-1.38-3.54-2.39-.99-1.01-1.76-2.18-2.31-3.53-.55-1.35-.83-2.78-.83-4.3v-.06c0-1.52.28-2.95.83-4.3.55-1.35,1.33-2.53,2.34-3.54,1.01-1.02,2.2-1.82,3.57-2.42,1.38-.6,2.9-.89,4.56-.89s3.18.29,4.56.88c1.38.59,2.56,1.38,3.54,2.39.99,1.01,1.76,2.18,2.31,3.53s.83,2.78.83,4.3v.06c0,1.52-.28,2.95-.83,4.3s-1.34,2.53-2.34,3.54-2.2,1.82-3.57,2.42c-1.38.6-2.9.89-4.56.89ZM446.58,598.31c1.06,0,2.04-.2,2.93-.6.89-.4,1.65-.94,2.29-1.63.63-.69,1.13-1.49,1.49-2.42.36-.92.54-1.91.54-2.96v-.06c0-1.05-.18-2.04-.54-2.97-.36-.93-.86-1.75-1.5-2.43-.64-.69-1.42-1.24-2.32-1.65-.9-.41-1.88-.62-2.95-.62s-2.04.2-2.93.6c-.89.4-1.65.95-2.29,1.63-.63.69-1.13,1.49-1.49,2.42-.36.92-.54,1.91-.54,2.96v.06c0,1.05.18,2.04.54,2.97.36.94.86,1.75,1.5,2.43.64.69,1.42,1.24,2.32,1.65.9.41,1.88.62,2.95.62Z"/>
        <path class="cls-4" d="M479.86,601.79c-1.58,0-3.04-.29-4.38-.86-1.34-.57-2.49-1.36-3.48-2.36-.98-1-1.75-2.17-2.31-3.53-.56-1.36-.84-2.8-.84-4.35v-.06c0-1.54.27-2.98.82-4.33.55-1.35,1.32-2.53,2.31-3.54.99-1.02,2.17-1.82,3.52-2.4,1.36-.59,2.86-.88,4.5-.88.99,0,1.88.08,2.7.25.81.17,1.56.4,2.23.69.68.3,1.3.65,1.88,1.06.57.41,1.12.86,1.63,1.36l-2.43,2.8c-.86-.8-1.78-1.45-2.74-1.94-.97-.49-2.06-.74-3.3-.74-1.03,0-1.98.2-2.85.6-.87.4-1.63.95-2.26,1.63s-1.13,1.49-1.48,2.42c-.35.92-.52,1.91-.52,2.96v.06c0,1.05.17,2.04.52,2.97.35.94.84,1.75,1.48,2.45.64.7,1.39,1.25,2.26,1.65.87.4,1.82.6,2.85.6,1.31,0,2.44-.25,3.39-.75s1.88-1.19,2.8-2.05l2.43,2.47c-.55.6-1.14,1.12-1.74,1.59-.61.46-1.26.86-1.96,1.2s-1.46.6-2.3.77-1.75.26-2.76.26Z"/>
        <path class="cls-4" d="M500.17,579.85h3.76v21.57h-3.76v-21.57Z"/>
        <path class="cls-4" d="M524.76,579.7h3.51l9.49,21.73h-4.01l-2.19-5.21h-10.2l-2.22,5.21h-3.88l9.49-21.73ZM530.19,592.85l-3.73-8.63-3.7,8.63h7.43Z"/>
        <path class="cls-4" d="M554.17,583.36h-6.84v-3.51h17.51v3.51h-6.84v18.06h-3.82v-18.06Z"/>
        <path class="cls-4" d="M576.45,579.85h3.76v21.57h-3.76v-21.57Z"/>
        <path class="cls-4" d="M603.69,601.79c-1.66,0-3.19-.29-4.56-.88-1.38-.59-2.56-1.38-3.54-2.39-.99-1.01-1.76-2.18-2.31-3.53-.55-1.35-.83-2.78-.83-4.3v-.06c0-1.52.28-2.95.83-4.3.55-1.35,1.33-2.53,2.34-3.54,1.01-1.02,2.2-1.82,3.57-2.42,1.38-.6,2.9-.89,4.56-.89s3.18.29,4.56.88c1.38.59,2.56,1.38,3.54,2.39.99,1.01,1.76,2.18,2.31,3.53s.83,2.78.83,4.3v.06c0,1.52-.28,2.95-.83,4.3s-1.34,2.53-2.34,3.54-2.2,1.82-3.57,2.42c-1.38.6-2.9.89-4.56.89ZM603.75,598.31c1.06,0,2.04-.2,2.93-.6.89-.4,1.65-.94,2.29-1.63.63-.69,1.13-1.49,1.49-2.42.36-.92.54-1.91.54-2.96v-.06c0-1.05-.18-2.04-.54-2.97-.36-.93-.86-1.75-1.5-2.43-.64-.69-1.42-1.24-2.32-1.65-.9-.41-1.88-.62-2.95-.62s-2.04.2-2.93.6c-.89.4-1.65.95-2.29,1.63-.63.69-1.13,1.49-1.49,2.42-.36.92-.54,1.91-.54,2.96v.06c0,1.05.18,2.04.54,2.97.36.94.86,1.75,1.5,2.43.64.69,1.42,1.24,2.32,1.65.9.41,1.88.62,2.95.62Z"/>
        <path class="cls-4" d="M626.99,579.85h3.51l11.53,14.92v-14.92h3.76v21.57h-3.17l-11.87-15.35v15.35h-3.76v-21.57Z"/>
        <path class="cls-4" d="M675.38,579.85h16.03v3.42h-12.27v5.95h10.88v3.42h-10.88v8.78h-3.76v-21.57Z"/>
        <path class="cls-4" d="M713.28,601.79c-1.66,0-3.19-.29-4.56-.88-1.38-.59-2.56-1.38-3.54-2.39-.99-1.01-1.76-2.18-2.31-3.53-.55-1.35-.83-2.78-.83-4.3v-.06c0-1.52.28-2.95.83-4.3.55-1.35,1.33-2.53,2.34-3.54,1.01-1.02,2.2-1.82,3.57-2.42,1.38-.6,2.9-.89,4.56-.89s3.18.29,4.56.88c1.38.59,2.56,1.38,3.54,2.39.99,1.01,1.76,2.18,2.31,3.53s.83,2.78.83,4.3v.06c0,1.52-.28,2.95-.83,4.3s-1.34,2.53-2.34,3.54-2.2,1.82-3.57,2.42c-1.38.6-2.9.89-4.56.89ZM713.34,598.31c1.06,0,2.04-.2,2.93-.6.89-.4,1.65-.94,2.29-1.63.63-.69,1.13-1.49,1.49-2.42.36-.92.54-1.91.54-2.96v-.06c0-1.05-.18-2.04-.54-2.97-.36-.93-.86-1.75-1.5-2.43-.64-.69-1.42-1.24-2.32-1.65-.9-.41-1.88-.62-2.95-.62s-2.04.2-2.93.6c-.89.4-1.65.95-2.29,1.63-.63.69-1.13,1.49-1.49,2.42-.36.92-.54,1.91-.54,2.96v.06c0,1.05.18,2.04.54,2.97.36.94.86,1.75,1.5,2.43.64.69,1.42,1.24,2.32,1.65.9.41,1.88.62,2.95.62Z"/>
        <path class="cls-4" d="M736.58,579.85h9.62c1.36,0,2.56.19,3.61.57s1.92.91,2.62,1.59c.58.6,1.02,1.28,1.33,2.06.31.78.46,1.64.46,2.59v.06c0,.88-.13,1.68-.39,2.39-.26.71-.61,1.34-1.06,1.88-.45.54-.99,1.01-1.62,1.39-.63.38-1.32.67-2.08.88l5.82,8.17h-4.47l-5.32-7.52h-4.76v7.52h-3.76v-21.57ZM745.91,590.54c1.36,0,2.44-.32,3.25-.98.8-.65,1.21-1.53,1.21-2.65v-.06c0-1.18-.39-2.07-1.17-2.68-.78-.61-1.89-.91-3.31-.91h-5.53v7.27h5.57Z"/>
        <path class="cls-4" d="M782.9,579.85h3.76v8.97h10.36v-8.97h3.76v21.57h-3.76v-9.09h-10.36v9.09h-3.76v-21.57Z"/>
        <path class="cls-4" d="M813.72,579.85h15.96v3.42h-12.21v5.55h10.82v3.42h-10.82v5.76h12.36v3.42h-16.12v-21.57Z"/>
        <path class="cls-4" d="M849.41,579.7h3.51l9.49,21.73h-4.01l-2.19-5.21h-10.2l-2.22,5.21h-3.88l9.49-21.73ZM854.83,592.85l-3.73-8.63-3.7,8.63h7.43Z"/>
        <path class="cls-4" d="M873.51,579.85h3.76v18.15h11.34v3.42h-15.1v-21.57Z"/>
        <path class="cls-4" d="M905.28,583.36h-6.84v-3.51h17.51v3.51h-6.84v18.06h-3.82v-18.06Z"/>
        <path class="cls-4" d="M927.35,579.85h3.76v8.97h10.36v-8.97h3.76v21.57h-3.76v-9.09h-10.36v9.09h-3.76v-21.57Z"/>
        <path class="cls-4" d="M350.24,616.83h3.76v18.15h11.34v3.42h-15.1v-21.57Z"/>
        <path class="cls-4" d="M376.71,616.83h15.96v3.42h-12.21v5.55h10.82v3.42h-10.82v5.76h12.36v3.42h-16.12v-21.57Z"/>
        <path class="cls-4" d="M412.4,616.68h3.51l9.49,21.73h-4.01l-2.19-5.21h-10.2l-2.22,5.21h-3.88l9.49-21.73ZM417.82,629.84l-3.73-8.63-3.7,8.63h7.43Z"/>
        <path class="cls-4" d="M436.5,616.83h9.62c1.36,0,2.56.19,3.61.57s1.92.91,2.62,1.59c.58.6,1.02,1.28,1.33,2.06.31.78.46,1.64.46,2.59v.06c0,.88-.13,1.68-.39,2.39-.26.71-.61,1.34-1.06,1.88-.45.54-.99,1.01-1.62,1.39-.63.38-1.32.67-2.08.88l5.82,8.17h-4.47l-5.32-7.52h-4.76v7.52h-3.76v-21.57ZM445.82,627.53c1.36,0,2.44-.32,3.25-.98.8-.65,1.21-1.53,1.21-2.65v-.06c0-1.18-.39-2.07-1.17-2.68-.78-.61-1.89-.91-3.31-.91h-5.53v7.27h5.57Z"/>
        <path class="cls-4" d="M466.18,616.83h3.51l11.53,14.92v-14.92h3.76v21.57h-3.17l-11.87-15.35v15.35h-3.76v-21.57Z"/>
        <path class="cls-4" d="M498.14,616.83h3.76v21.57h-3.76v-21.57Z"/>
        <path class="cls-4" d="M515.09,616.83h3.51l11.53,14.92v-14.92h3.76v21.57h-3.17l-11.87-15.35v15.35h-3.76v-21.57Z"/>
        <path class="cls-4" d="M557.06,638.78c-1.69,0-3.22-.28-4.59-.85-1.38-.56-2.55-1.35-3.53-2.34s-1.73-2.17-2.27-3.51c-.53-1.35-.8-2.81-.8-4.39v-.06c0-1.5.27-2.93.82-4.28.55-1.36,1.32-2.54,2.31-3.56.99-1.02,2.17-1.82,3.54-2.42,1.37-.6,2.86-.89,4.48-.89.95,0,1.8.07,2.57.2.77.13,1.48.32,2.14.57.66.25,1.28.55,1.86.91.59.36,1.16.78,1.71,1.25l-2.4,2.87c-.41-.35-.83-.67-1.26-.96-.43-.29-.88-.53-1.36-.72s-.99-.35-1.56-.46c-.57-.11-1.19-.17-1.87-.17-.99,0-1.91.21-2.76.62s-1.59.96-2.22,1.65c-.63.69-1.12,1.5-1.48,2.42-.36.93-.54,1.9-.54,2.93v.06c0,1.11.17,2.14.52,3.09.35.95.85,1.76,1.49,2.44.65.68,1.41,1.21,2.31,1.61.89.39,1.89.59,3,.59,1.03,0,1.98-.15,2.88-.45.89-.3,1.67-.7,2.32-1.19v-4.06h-5.52v-3.3h9.18v9.06c-.53.45-1.12.88-1.77,1.29-.65.41-1.35.77-2.1,1.08-.75.31-1.56.55-2.42.72s-1.77.26-2.71.26Z"/>
        <path class="cls-4" d="M602.67,616.68h3.51l9.49,21.73h-4.01l-2.19-5.21h-10.2l-2.22,5.21h-3.88l9.49-21.73ZM608.1,629.84l-3.73-8.63-3.7,8.63h7.43Z"/>
        <path class="cls-4" d="M626.77,616.83h3.51l11.53,14.92v-14.92h3.76v21.57h-3.17l-11.87-15.35v15.35h-3.76v-21.57Z"/>
        <path class="cls-4" d="M658.52,616.83h8.04c1.68,0,3.23.27,4.64.82,1.41.54,2.62,1.3,3.64,2.27,1.02.97,1.8,2.1,2.36,3.41.55,1.31.83,2.72.83,4.24v.06c0,1.52-.28,2.94-.83,4.25-.55,1.31-1.34,2.46-2.36,3.42-1.02.97-2.23,1.73-3.64,2.28-1.41.55-2.95.83-4.64.83h-8.04v-21.57ZM666.53,634.98c1.13,0,2.16-.18,3.08-.54.92-.36,1.71-.87,2.36-1.52.65-.65,1.15-1.42,1.51-2.32.36-.9.54-1.87.54-2.92v-.06c0-1.05-.18-2.03-.54-2.94s-.86-1.69-1.51-2.34c-.65-.65-1.43-1.16-2.36-1.53-.92-.37-1.95-.56-3.08-.56h-4.25v14.73h4.25Z"/>
        <path class="cls-4" d="M706.87,616.83h3.76v21.57h-3.76v-21.57Z"/>
        <path class="cls-4" d="M723.82,616.83h3.51l11.53,14.92v-14.92h3.76v21.57h-3.17l-11.87-15.35v15.35h-3.76v-21.57Z"/>
        <path class="cls-4" d="M755.57,616.83h16.03v3.42h-12.27v5.95h10.88v3.42h-10.88v8.78h-3.76v-21.57Z"/>
        <path class="cls-4" d="M783.18,616.83h15.96v3.42h-12.21v5.55h10.82v3.42h-10.82v5.76h12.36v3.42h-16.12v-21.57Z"/>
        <path class="cls-4" d="M811.22,616.83h9.62c1.36,0,2.56.19,3.61.57s1.92.91,2.62,1.59c.58.6,1.02,1.28,1.33,2.06.31.78.46,1.64.46,2.59v.06c0,.88-.13,1.68-.39,2.39-.26.71-.61,1.34-1.06,1.88-.45.54-.99,1.01-1.62,1.39-.63.38-1.32.67-2.08.88l5.82,8.17h-4.47l-5.32-7.52h-4.76v7.52h-3.76v-21.57ZM820.55,627.53c1.36,0,2.44-.32,3.25-.98.8-.65,1.21-1.53,1.21-2.65v-.06c0-1.18-.39-2.07-1.17-2.68-.78-.61-1.89-.91-3.31-.91h-5.53v7.27h5.57Z"/>
        <path class="cls-4" d="M840.9,616.83h15.96v3.42h-12.21v5.55h10.82v3.42h-10.82v5.76h12.36v3.42h-16.12v-21.57Z"/>
        <path class="cls-4" d="M868.95,616.83h3.51l11.53,14.92v-14.92h3.76v21.57h-3.17l-11.87-15.35v15.35h-3.76v-21.57Z"/>
        <path class="cls-4" d="M910.74,638.78c-1.58,0-3.04-.29-4.38-.86-1.34-.57-2.49-1.36-3.48-2.36-.98-1-1.75-2.17-2.31-3.53-.56-1.36-.84-2.8-.84-4.35v-.06c0-1.54.27-2.98.82-4.33.55-1.35,1.32-2.53,2.31-3.54.99-1.02,2.17-1.82,3.52-2.4,1.36-.59,2.86-.88,4.5-.88.99,0,1.88.08,2.7.25.81.17,1.56.4,2.23.69.68.3,1.3.65,1.88,1.06.57.41,1.12.86,1.63,1.36l-2.43,2.8c-.86-.8-1.78-1.45-2.74-1.94-.97-.49-2.06-.74-3.3-.74-1.03,0-1.98.2-2.85.6-.87.4-1.63.95-2.26,1.63s-1.13,1.49-1.48,2.42c-.35.92-.52,1.91-.52,2.96v.06c0,1.05.17,2.04.52,2.97.35.94.84,1.75,1.48,2.45.64.7,1.39,1.25,2.26,1.65.87.4,1.82.6,2.85.6,1.31,0,2.44-.25,3.39-.75s1.88-1.19,2.8-2.05l2.43,2.47c-.55.6-1.14,1.12-1.74,1.59-.61.46-1.26.86-1.96,1.2s-1.46.6-2.3.77-1.75.26-2.76.26Z"/>
        <path class="cls-4" d="M930.83,616.83h15.96v3.42h-12.21v5.55h10.82v3.42h-10.82v5.76h12.36v3.42h-16.12v-21.57Z"/>
      </g>
    </g>
  </g>
</svg>